<svg width="550" height="500" viewBox="0 0 550 500" fill="none" xmlns="http://www.w3.org/2000/svg">
<g clip-path="url(#clip0_19_4)">
<rect width="550" height="500" rx="20" fill="white"/>
<path d="M485.757 87.2711L363.678 86.5482C354.408 86.4932 346.85 93.6915 346.798 102.626L345.167 381.317C345.114 390.252 352.587 397.539 361.858 397.594L483.936 398.316C493.206 398.371 500.764 391.173 500.816 382.239L502.448 103.548C502.499 94.6134 495.026 87.326 485.757 87.2711Z" fill="url(#paint0_linear_19_4)"/>
<path d="M390.085 249.203L390.194 230.616L397.302 230.659C398.625 230.666 399.767 230.869 400.729 231.267C401.691 231.666 402.431 232.228 402.95 232.957C403.47 233.683 403.727 234.536 403.721 235.513C403.716 236.402 403.509 237.183 403.101 237.852C402.693 238.522 402.098 239.067 401.383 239.426C402.373 239.798 403.141 240.383 403.688 241.18C404.234 241.977 404.503 242.918 404.497 244C404.491 245.081 404.192 246.012 403.6 246.795C403.007 247.577 402.177 248.183 401.109 248.613C400.042 249.043 398.782 249.253 397.331 249.245L390.085 249.203ZM394.143 233.859L394.118 238.126L396.818 238.143C397.718 238.148 398.412 237.974 398.901 237.618C399.39 237.263 399.636 236.736 399.64 236.038C399.644 235.341 399.403 234.807 398.92 234.438C398.435 234.068 397.742 233.881 396.843 233.876L394.142 233.86L394.143 233.859ZM394.072 246.006L397.157 246.024C398.186 246.03 398.982 245.826 399.544 245.41C400.107 244.994 400.39 244.394 400.395 243.608C400.399 242.823 400.123 242.219 399.565 241.798C399.007 241.375 398.214 241.162 397.186 241.155L394.1 241.137L394.072 246.006ZM406.919 249.303L407.033 229.773L410.89 229.796L410.776 249.326L406.919 249.303ZM420.857 249.777C419.774 249.77 418.774 249.582 417.857 249.209C416.962 248.852 416.151 248.326 415.47 247.664C414.789 246.998 414.255 246.207 413.899 245.337C413.527 244.446 413.345 243.475 413.351 242.428C413.357 241.381 413.555 240.419 413.947 239.539C414.326 238.676 414.878 237.892 415.571 237.232C416.268 236.571 417.095 236.051 418.005 235.702C418.935 235.342 419.95 235.164 421.052 235.17C422.136 235.177 423.136 235.366 424.053 235.739C424.947 236.096 425.758 236.622 426.441 237.284C427.119 237.947 427.653 238.733 428.011 239.597C428.383 240.48 428.565 241.446 428.558 242.493C428.552 243.54 428.355 244.507 427.963 245.394C427.585 246.264 427.033 247.052 426.338 247.716C425.641 248.377 424.814 248.897 423.904 249.245C422.975 249.606 421.959 249.784 420.857 249.777ZM420.932 246.479C421.629 246.483 422.255 246.312 422.809 245.967C423.362 245.621 423.799 245.148 424.125 244.547C424.45 243.947 424.615 243.264 424.619 242.496C424.624 241.728 424.467 241.041 424.149 240.438C423.831 239.835 423.398 239.356 422.849 239.003C422.299 238.651 421.677 238.472 420.979 238.468C420.28 238.464 419.655 238.635 419.102 238.981C418.549 239.327 418.11 239.8 417.784 240.4C417.46 241.001 417.294 241.684 417.29 242.452C417.286 243.22 417.443 243.906 417.76 244.51C418.079 245.114 418.511 245.592 419.061 245.944C419.61 246.296 420.234 246.475 420.932 246.479ZM437.033 249.087C436.145 249.088 435.268 248.905 434.46 248.549C433.674 248.202 432.969 247.703 432.39 247.083C431.796 246.446 431.332 245.705 431.024 244.902C430.699 244.072 430.539 243.176 430.544 242.217C430.55 241.222 430.726 240.302 431.07 239.458C431.398 238.639 431.889 237.891 432.515 237.254C433.128 236.634 433.862 236.136 434.673 235.788C435.492 235.436 436.38 235.262 437.335 235.267C438.272 235.272 439.116 235.457 439.866 235.818C440.616 236.18 441.258 236.719 441.731 237.387L441.823 235.686L445.377 235.707L445.306 247.879C445.3 248.944 445.115 249.911 444.752 250.782C444.407 251.626 443.882 252.39 443.209 253.024C442.533 253.656 441.728 254.146 440.846 254.463C439.934 254.798 438.928 254.963 437.826 254.956C436.743 254.95 435.77 254.782 434.909 254.454C434.075 254.143 433.311 253.681 432.657 253.093C432.022 252.52 431.512 251.831 431.154 251.068L434.851 250.226C435.165 250.722 435.603 251.135 436.125 251.426C436.646 251.716 437.238 251.863 437.899 251.868C438.616 251.872 439.236 251.722 439.761 251.421C440.289 251.116 440.716 250.673 440.994 250.145C441.291 249.597 441.443 248.956 441.447 248.224L441.454 247.098C440.951 247.725 440.301 248.229 439.558 248.566C438.793 248.919 437.952 249.092 437.033 249.087ZM437.989 245.846C438.668 245.851 439.272 245.693 439.796 245.374C440.325 245.05 440.759 244.602 441.058 244.073C441.374 243.524 441.533 242.901 441.537 242.203C441.541 241.505 441.39 240.88 441.08 240.329C440.787 239.795 440.358 239.342 439.834 239.012C439.313 238.686 438.712 238.521 438.032 238.517C437.353 238.513 436.75 238.67 436.225 238.992C435.696 239.314 435.262 239.762 434.964 240.293C434.648 240.84 434.488 241.463 434.484 242.161C434.48 242.86 434.633 243.484 434.942 244.036C435.251 244.587 435.666 245.025 436.188 245.352C436.71 245.678 437.309 245.842 437.989 245.846ZM448.382 249.548L448.463 235.725L452.018 235.746L452.142 237.841C452.515 237.11 453.014 236.55 453.64 236.162C454.267 235.773 455.003 235.58 455.848 235.585C456.104 235.587 456.361 235.61 456.619 235.656C456.875 235.701 457.104 235.759 457.307 235.83L456.872 239.44C456.672 239.369 456.464 239.319 456.254 239.292C456.039 239.264 455.822 239.25 455.605 239.249C454.541 239.243 453.721 239.547 453.148 240.163C452.575 240.78 452.285 241.655 452.279 242.789L452.24 249.569L448.382 249.546V249.548Z" fill="white"/>
<g filter="url(#filter0_d_19_4)">
<path d="M495.726 378.026C495.681 385.812 489.679 392.483 481.604 392.435L366.455 391.753C358.38 391.705 351.398 384.956 351.444 377.172L353.045 103.75C353.09 95.9647 360.144 90.3148 368.22 90.3626L381.532 90.4415C384.346 90.4582 385.387 90.154 385.538 93.5942C385.616 95.3815 386.288 96.7738 387.371 97.9296C388.452 99.0641 389.945 99.9994 391.663 100.529C392.829 100.889 394.128 101.216 395.368 101.224L456.217 101.584C457.458 101.591 458.76 101.206 459.93 100.861C461.657 100.351 463.158 99.4925 464.253 98.3923C465.35 97.27 466.037 95.9438 466.135 94.1582C466.325 90.7208 467.365 90.9498 470.18 90.9665L483.368 91.0445C491.442 91.0923 497.373 96.8191 497.327 104.604L495.726 378.026ZM416.831 91.9874L434.865 92.0942C435.631 92.0987 436.25 92.5598 436.246 93.2164C436.243 93.873 435.618 94.3275 434.852 94.323L416.817 94.2162C416.051 94.2116 415.433 93.7499 415.436 93.0931C415.441 92.4365 416.063 91.9828 416.831 91.9874ZM444.343 92.5342C444.34 93.0516 444.124 93.5465 443.743 93.9101C443.361 94.2737 442.844 94.4762 442.308 94.473C441.772 94.4699 441.257 94.2613 440.88 93.8932C440.503 93.525 440.292 93.0276 440.295 92.5102C440.298 91.9928 440.514 91.4979 440.896 91.1343C441.278 90.7706 441.794 90.5682 442.331 90.5714C442.868 90.5745 443.382 90.7831 443.758 91.1512C444.136 91.5193 444.347 92.0167 444.343 92.5342ZM505.817 155.38L506.108 105.535C506.182 92.9283 495.641 82.6459 482.565 82.5685L367.523 81.8872C354.036 81.8073 342.937 92.3822 342.861 105.387L342.754 123.651C342.386 123.649 342.032 123.788 341.771 124.037C341.509 124.286 341.361 124.625 341.358 124.98L341.303 134.343C341.301 134.698 341.446 135.039 341.704 135.291C341.963 135.544 342.315 135.687 342.684 135.69L342.618 146.835C342.25 146.833 341.896 146.972 341.635 147.221C341.373 147.471 341.225 147.81 341.223 148.165L341.105 168.227C341.103 168.582 341.248 168.923 341.507 169.175C341.765 169.428 342.117 169.571 342.485 169.573L342.446 176.261C342.078 176.259 341.724 176.398 341.463 176.646C341.201 176.895 341.053 177.234 341.05 177.589L340.933 197.653C340.931 198.008 341.075 198.349 341.334 198.602C341.593 198.854 341.945 198.997 342.313 199L341.264 378.138C341.188 391.183 352.196 401.923 365.726 402.003L480.691 402.684C493.712 402.762 504.427 392.551 504.501 379.998L505.6 192.385L506.061 192.388C506.243 192.389 506.425 192.356 506.593 192.289C506.762 192.223 506.915 192.125 507.045 192.002C507.175 191.879 507.278 191.731 507.349 191.57C507.42 191.408 507.457 191.234 507.458 191.059L507.658 156.729C507.663 155.99 507.045 155.387 506.278 155.383L505.817 155.38Z" fill="black"/>
</g>
<path d="M495.726 378.026C495.681 385.812 489.679 392.483 481.604 392.435L366.455 391.753C358.38 391.705 351.398 384.956 351.444 377.172L353.045 103.75C353.09 95.9647 360.144 90.3148 368.22 90.3626L381.532 90.4415C384.346 90.4582 385.387 90.154 385.538 93.5942C385.616 95.3815 386.288 96.7738 387.371 97.9296C388.452 99.0641 389.945 99.9994 391.663 100.529C392.829 100.889 394.128 101.216 395.368 101.224L456.217 101.584C457.458 101.591 458.76 101.206 459.93 100.861C461.657 100.351 463.158 99.4925 464.253 98.3923C465.35 97.27 466.037 95.9438 466.135 94.1582C466.325 90.7208 467.365 90.9498 470.18 90.9665L483.368 91.0445C491.442 91.0923 497.373 96.8191 497.327 104.604L495.726 378.026ZM416.831 91.9874L434.865 92.0942C435.631 92.0987 436.25 92.5598 436.246 93.2164C436.243 93.873 435.618 94.3275 434.852 94.323L416.817 94.2162C416.051 94.2116 415.433 93.7499 415.436 93.0931C415.441 92.4365 416.063 91.9828 416.831 91.9874ZM444.343 92.5342C444.34 93.0516 444.124 93.5465 443.743 93.9101C443.361 94.2737 442.844 94.4762 442.308 94.473C441.772 94.4699 441.257 94.2613 440.88 93.8932C440.503 93.525 440.292 93.0276 440.295 92.5102C440.298 91.9928 440.514 91.4979 440.896 91.1343C441.278 90.7706 441.794 90.5682 442.331 90.5714C442.868 90.5745 443.382 90.7831 443.758 91.1512C444.136 91.5193 444.347 92.0167 444.343 92.5342ZM505.817 155.38L506.108 105.535C506.182 92.9283 495.641 82.6459 482.565 82.5685L367.523 81.8872C354.036 81.8073 342.937 92.3822 342.861 105.387L342.754 123.651C342.386 123.649 342.032 123.788 341.771 124.037C341.509 124.286 341.361 124.625 341.358 124.98L341.303 134.343C341.301 134.698 341.446 135.039 341.704 135.291C341.963 135.544 342.315 135.687 342.684 135.69L342.618 146.835C342.25 146.833 341.896 146.972 341.635 147.221C341.373 147.471 341.225 147.81 341.223 148.165L341.105 168.227C341.103 168.582 341.248 168.923 341.507 169.175C341.765 169.428 342.117 169.571 342.485 169.573L342.446 176.261C342.078 176.259 341.724 176.398 341.463 176.646C341.201 176.895 341.053 177.234 341.05 177.589L340.933 197.653C340.931 198.008 341.075 198.349 341.334 198.602C341.593 198.854 341.945 198.997 342.313 199L341.264 378.138C341.188 391.183 352.196 401.923 365.726 402.003L480.691 402.684C493.712 402.762 504.427 392.551 504.501 379.998L505.6 192.385L506.061 192.388C506.243 192.389 506.425 192.356 506.593 192.289C506.762 192.223 506.915 192.125 507.045 192.002C507.175 191.879 507.278 191.731 507.349 191.57C507.42 191.408 507.457 191.234 507.458 191.059L507.658 156.729C507.663 155.99 507.045 155.387 506.278 155.383L505.817 155.38Z" fill="#1D1D25"/>
<path fill-rule="evenodd" clip-rule="evenodd" d="M434.868 92.0916L416.834 91.9848C416.067 91.9803 415.444 92.4354 415.439 93.0919C415.435 93.7476 416.054 94.2093 416.821 94.2138L434.855 94.3206C435.621 94.3252 436.246 93.8709 436.25 93.2151C436.254 92.5586 435.635 92.0962 434.868 92.0916ZM442.334 90.5699C441.797 90.567 441.282 90.7695 440.9 91.1332C440.518 91.4969 440.302 91.9918 440.299 92.509C440.296 93.0263 440.507 93.5236 440.884 93.8914C441.262 94.2594 441.776 94.4677 442.313 94.4706C442.849 94.4736 443.366 94.2711 443.747 93.9074C444.129 93.5437 444.344 93.0488 444.348 92.5315C444.351 92.0143 444.14 91.517 443.762 91.1491C443.385 90.7812 442.871 90.5729 442.334 90.5699Z" fill="black"/>
</g>
<defs>
<filter id="filter0_d_19_4" x="300.933" y="61.8867" width="246.725" height="400.797" filterUnits="userSpaceOnUse" color-interpolation-filters="sRGB">
<feFlood flood-opacity="0" result="BackgroundImageFix"/>
<feColorMatrix in="SourceAlpha" type="matrix" values="0 0 0 0 0 0 0 0 0 0 0 0 0 0 0 0 0 0 127 0" result="hardAlpha"/>
<feOffset dy="20"/>
<feGaussianBlur stdDeviation="20"/>
<feColorMatrix type="matrix" values="0 0 0 0 0.421822 0 0 0 0 0.554338 0 0 0 0 0.89371 0 0 0 0.243444 0"/>
<feBlend mode="normal" in2="BackgroundImageFix" result="effect1_dropShadow_19_4"/>
<feBlend mode="normal" in="SourceGraphic" in2="effect1_dropShadow_19_4" result="shape"/>
</filter>
<linearGradient id="paint0_linear_19_4" x1="424.717" y1="86.9096" x2="422.875" y2="397.955" gradientUnits="userSpaceOnUse">
<stop stop-color="#FE7550"/>
<stop offset="1" stop-color="#FF4F64"/>
</linearGradient>
<clipPath id="clip0_19_4">
<rect width="550" height="500" rx="20" fill="white"/>
</clipPath>
</defs>
</svg>
