<svg width="1440" height="720" viewBox="0 0 1440 720" fill="none" xmlns="http://www.w3.org/2000/svg">
<g clip-path="url(#clip0_99_2)">
<rect width="1440" height="720" fill="white"/>
<g clip-path="url(#clip1_99_2)">
<path opacity="0.08" d="M1523.79 367.048C1523.79 501.174 1415.18 609.905 1281.19 609.905C1147.21 609.905 1038.6 501.174 1038.6 367.048V365.429C1038.6 231.302 1147.21 122.571 1281.19 122.571C1415.18 122.571 1523.79 231.302 1523.79 365.429V367.048Z" fill="#2D2E40"/>
<path opacity="0.5" d="M1555.73 363.809C1555.73 515.596 1432.82 638.643 1281.19 638.643C1129.57 638.643 1006.66 515.596 1006.66 363.809V362.19C1006.66 210.404 1129.57 87.3571 1281.19 87.3571C1432.82 87.3571 1555.73 210.404 1555.73 362.19V363.809Z" stroke="#2D2E40"/>
<path opacity="0.25" d="M1636.6 363.81C1636.6 560.305 1477.48 719.595 1281.19 719.595C1084.91 719.595 925.793 560.305 925.793 363.81V362.19C925.793 165.695 1084.91 6.40472 1281.19 6.40472C1477.48 6.40472 1636.6 165.695 1636.6 362.19V363.81Z" stroke="#2D2E40"/>
<g filter="url(#filter0_d_99_2)">
<path d="M1428.37 201.905H933.476C926.777 201.905 921.346 207.341 921.346 214.048V535.429C921.346 542.135 926.777 547.571 933.476 547.571H1428.37C1435.07 547.571 1440.5 542.135 1440.5 535.429V214.048C1440.5 207.341 1435.07 201.905 1428.37 201.905Z" fill="black"/>
</g>
<path d="M1428.37 201.905H933.476C926.777 201.905 921.346 207.341 921.346 214.048V535.429C921.346 542.135 926.777 547.571 933.476 547.571H1428.37C1435.07 547.571 1440.5 542.135 1440.5 535.429V214.048C1440.5 207.341 1435.07 201.905 1428.37 201.905Z" fill="#FE7550"/>
<mask id="mask0_99_2" style="mask-type:luminance" maskUnits="userSpaceOnUse" x="921" y="201" width="520" height="347">
<path d="M1428.37 201.905H933.476C926.777 201.905 921.346 207.341 921.346 214.048V535.429C921.346 542.135 926.777 547.571 933.476 547.571H1428.37C1435.07 547.571 1440.5 542.135 1440.5 535.429V214.048C1440.5 207.341 1435.07 201.905 1428.37 201.905Z" fill="white"/>
</mask>
<g mask="url(#mask0_99_2)">
<path d="M923.772 303.095H1438.07C1438.72 303.095 1439.33 303.351 1439.79 303.807C1440.24 304.262 1440.5 304.88 1440.5 305.524V545.143C1440.5 545.787 1440.24 546.405 1439.79 546.86C1439.33 547.315 1438.72 547.571 1438.07 547.571H923.772C923.128 547.571 922.511 547.315 922.056 546.86C921.602 546.405 921.346 545.787 921.346 545.143V305.524C921.346 304.88 921.602 304.262 922.056 303.807C922.511 303.351 923.128 303.095 923.772 303.095Z" fill="#2D2E40"/>
</g>
<mask id="mask1_99_2" style="mask-type:luminance" maskUnits="userSpaceOnUse" x="921" y="201" width="520" height="347">
<path d="M1428.37 201.905H933.476C926.777 201.905 921.346 207.341 921.346 214.048V535.429C921.346 542.135 926.777 547.571 933.476 547.571H1428.37C1435.07 547.571 1440.5 542.135 1440.5 535.429V214.048C1440.5 207.341 1435.07 201.905 1428.37 201.905Z" fill="white"/>
</mask>
<g mask="url(#mask1_99_2)">
<path d="M1101.92 240.526H996.973C995.633 240.526 994.547 241.614 994.547 242.955V349.136C994.547 350.477 995.633 351.565 996.973 351.565H1101.92C1103.26 351.565 1104.35 350.477 1104.35 349.136V242.955C1104.35 241.614 1103.26 240.526 1101.92 240.526Z" fill="white"/>
</g>
<mask id="mask2_99_2" style="mask-type:luminance" maskUnits="userSpaceOnUse" x="921" y="201" width="520" height="347">
<path d="M1428.37 201.905H933.476C926.777 201.905 921.346 207.341 921.346 214.048V535.429C921.346 542.135 926.777 547.571 933.476 547.571H1428.37C1435.07 547.571 1440.5 542.135 1440.5 535.429V214.048C1440.5 207.341 1435.07 201.905 1428.37 201.905Z" fill="white"/>
</mask>
<g mask="url(#mask2_99_2)">
<path d="M1049.45 328.391C1067 328.391 1081.23 314.126 1081.23 296.528C1081.23 278.931 1067 264.666 1049.45 264.666C1031.89 264.666 1017.66 278.931 1017.66 296.528C1017.66 314.126 1031.89 328.391 1049.45 328.391Z" fill="#2D2E40"/>
</g>
<mask id="mask3_99_2" style="mask-type:luminance" maskUnits="userSpaceOnUse" x="921" y="201" width="520" height="347">
<path d="M1428.37 201.905H933.476C926.777 201.905 921.346 207.341 921.346 214.048V535.429C921.346 542.135 926.777 547.571 933.476 547.571H1428.37C1435.07 547.571 1440.5 542.135 1440.5 535.429V214.048C1440.5 207.341 1435.07 201.905 1428.37 201.905Z" fill="white"/>
</mask>
<g mask="url(#mask3_99_2)">
<path d="M1364.87 240.526H1125.08C1123.74 240.526 1122.65 241.614 1122.65 242.955V501.693C1122.65 503.034 1123.74 504.121 1125.08 504.121H1364.87C1366.21 504.121 1367.3 503.034 1367.3 501.693V242.955C1367.3 241.614 1366.21 240.526 1364.87 240.526Z" fill="white"/>
</g>
<path d="M1090.35 431.809C1128.46 372.417 1156.64 340.323 1174.9 335.526C1202.29 328.333 1194.12 402.83 1233.56 394.195C1273 385.561 1277.8 310.026 1307.63 306.467C1337.46 302.907 1353.24 371.995 1366.27 378.361C1374.96 382.603 1385.68 373.427 1398.45 350.831" stroke="url(#paint0_linear_99_2)" stroke-width="8" stroke-linecap="round"/>
</g>
</g>
<defs>
<filter id="filter0_d_99_2" x="881.346" y="181.905" width="599.152" height="425.667" filterUnits="userSpaceOnUse" color-interpolation-filters="sRGB">
<feFlood flood-opacity="0" result="BackgroundImageFix"/>
<feColorMatrix in="SourceAlpha" type="matrix" values="0 0 0 0 0 0 0 0 0 0 0 0 0 0 0 0 0 0 127 0" result="hardAlpha"/>
<feOffset dy="20"/>
<feGaussianBlur stdDeviation="20"/>
<feColorMatrix type="matrix" values="0 0 0 0 0.421822 0 0 0 0 0.554338 0 0 0 0 0.89371 0 0 0 0.243444 0"/>
<feBlend mode="normal" in2="BackgroundImageFix" result="effect1_dropShadow_99_2"/>
<feBlend mode="normal" in="SourceGraphic" in2="effect1_dropShadow_99_2" result="shape"/>
</filter>
<linearGradient id="paint0_linear_99_2" x1="1090.35" y1="5541.8" x2="28257.4" y2="16581.7" gradientUnits="userSpaceOnUse">
<stop stop-color="#FF8F71"/>
<stop offset="1" stop-color="#FF3E55"/>
</linearGradient>
<clipPath id="clip0_99_2">
<rect width="1440" height="720" fill="white"/>
</clipPath>
<clipPath id="clip1_99_2">
<rect width="748" height="714" fill="white" transform="translate(889 6)"/>
</clipPath>
</defs>
</svg>
