<svg width="430" height="400" viewBox="0 0 430 400" fill="none" xmlns="http://www.w3.org/2000/svg">
<g clip-path="url(#clip0_80_39)">
<rect width="430" height="400" fill="white"/>
<path opacity="0.08" d="M335.614 209.42C335.614 275.288 281.785 328.685 215.383 328.685C148.98 328.685 95.1506 275.288 95.1506 209.42C95.1506 143.552 148.98 90.1558 215.383 90.1558C281.785 90.1558 335.614 143.552 335.614 209.42Z" fill="#2D2E40"/>
<path opacity="0.5" d="M350.172 207.816C350.172 281.955 289.583 342.056 214.843 342.056C140.104 342.056 79.5151 281.955 79.5151 207.816C79.5151 133.678 140.104 73.5766 214.843 73.5766C289.583 73.5766 350.172 133.678 350.172 207.816Z" stroke="#2D2E40"/>
<path opacity="0.25" d="M390.069 207.816C390.069 303.812 311.618 381.632 214.843 381.632C118.069 381.632 39.6175 303.812 39.6175 207.816C39.6175 111.82 118.069 34 214.843 34C311.618 34 390.069 111.82 390.069 207.816Z" stroke="#2D2E40"/>
<g filter="url(#filter0_d_80_39)">
<path d="M338.849 113.688H92.994C85.8476 113.688 80.0542 119.435 80.0542 126.524V285.9C80.0542 292.989 85.8476 298.735 92.994 298.735H338.849C345.996 298.735 351.789 292.989 351.789 285.9V126.524C351.789 119.435 345.996 113.688 338.849 113.688Z" fill="#535353"/>
<path d="M339.928 115.828H91.9157C85.9603 115.828 81.1325 120.617 81.1325 126.524V286.97C81.1325 292.877 85.9603 297.666 91.9157 297.666H339.928C345.883 297.666 350.711 292.877 350.711 286.97V126.524C350.711 120.617 345.883 115.828 339.928 115.828Z" fill="#1D1D25"/>
<path d="M341.006 122.245H91.9157C90.1291 122.245 88.6807 123.682 88.6807 125.454V287.975C88.6807 289.747 90.1291 291.184 91.9157 291.184H341.006C342.793 291.184 344.241 289.747 344.241 287.975V125.454C344.241 123.682 342.793 122.245 341.006 122.245Z" fill="url(#paint0_linear_80_39)"/>
<mask id="mask0_80_39" style="mask-type:luminance" maskUnits="userSpaceOnUse" x="88" y="122" width="257" height="170">
<path d="M341.006 122.245H91.9157C90.1291 122.245 88.6807 123.682 88.6807 125.454V287.975C88.6807 289.747 90.1291 291.184 91.9157 291.184H341.006C342.793 291.184 344.241 289.747 344.241 287.975V125.454C344.241 123.682 342.793 122.245 341.006 122.245Z" fill="white"/>
</mask>
<g mask="url(#mask0_80_39)">
<path d="M340.842 152.571H91.7518C89.9652 152.571 88.5168 154.008 88.5168 155.78V288.104C88.5168 289.876 89.9652 291.313 91.7518 291.313H340.842C342.629 291.313 344.077 289.876 344.077 288.104V155.78C344.077 154.008 342.629 152.571 340.842 152.571Z" fill="#F9F6F6"/>
</g>
<mask id="mask1_80_39" style="mask-type:luminance" maskUnits="userSpaceOnUse" x="88" y="122" width="257" height="170">
<path d="M341.006 122.245H91.9157C90.1291 122.245 88.6807 123.682 88.6807 125.454V287.975C88.6807 289.747 90.1291 291.184 91.9157 291.184H341.006C342.793 291.184 344.241 289.747 344.241 287.975V125.454C344.241 123.682 342.793 122.245 341.006 122.245Z" fill="white"/>
</mask>
<g mask="url(#mask1_80_39)">
<path d="M175.408 141.087H128.015C126.229 141.087 124.781 142.524 124.781 144.296V266.914C124.781 268.686 126.229 270.123 128.015 270.123H175.408C177.195 270.123 178.643 268.686 178.643 266.914V144.296C178.643 142.524 177.195 141.087 175.408 141.087Z" fill="white"/>
<path d="M304.907 141.087H191.046C189.259 141.087 187.811 142.524 187.811 144.296V266.914C187.811 268.686 189.259 270.123 191.046 270.123H304.907C306.694 270.123 308.142 268.686 308.142 266.914V144.296C308.142 142.524 306.694 141.087 304.907 141.087Z" fill="white"/>
<path d="M299.75 147.938H196.203C194.416 147.938 192.968 149.375 192.968 151.147V174.99C192.968 176.762 194.416 178.199 196.203 178.199H299.75C301.536 178.199 302.985 176.762 302.985 174.99V151.147C302.985 149.375 301.536 147.938 299.75 147.938Z" fill="#E7E7E7"/>
<path d="M222.394 184.48H196.203C194.416 184.48 192.968 185.917 192.968 187.689V211.532C192.968 213.304 194.416 214.741 196.203 214.741H222.394C224.18 214.741 225.629 213.304 225.629 211.532V187.689C225.629 185.917 224.18 184.48 222.394 184.48Z" fill="#E7E7E7"/>
<path d="M299.75 184.48H236.886C235.1 184.48 233.651 185.917 233.651 187.689V211.532C233.651 213.304 235.1 214.741 236.886 214.741H299.75C301.536 214.741 302.985 213.304 302.985 211.532V187.689C302.985 185.917 301.536 184.48 299.75 184.48Z" fill="#E7E7E7"/>
</g>
<g opacity="0.098">
<path d="M220.904 106.201H215.383C215.085 106.201 214.843 106.44 214.843 106.736C214.843 107.031 215.085 107.27 215.383 107.27H220.904C221.201 107.27 221.443 107.031 221.443 106.736C221.443 106.44 221.201 106.201 220.904 106.201Z" fill="#4A5166"/>
<path d="M224.009 106.201H223.535C223.237 106.201 222.995 106.44 222.995 106.736C222.995 107.031 223.237 107.27 223.535 107.27H224.009C224.307 107.27 224.548 107.031 224.548 106.736C224.548 106.44 224.307 106.201 224.009 106.201Z" fill="#4A5166"/>
</g>
<path d="M41.235 296.596H388.401C389.259 296.596 390.082 296.934 390.689 297.536C391.295 298.138 391.636 298.954 391.636 299.805V304.728H38V299.805C38 298.954 38.3408 298.138 38.9475 297.536C39.5542 296.934 40.377 296.596 41.235 296.596V296.596Z" fill="#52526F"/>
<mask id="mask2_80_39" style="mask-type:luminance" maskUnits="userSpaceOnUse" x="38" y="296" width="354" height="9">
<path d="M41.235 296.596H388.401C389.259 296.596 390.082 296.934 390.689 297.536C391.295 298.138 391.636 298.954 391.636 299.805V304.728H38V299.805C38 298.954 38.3408 298.138 38.9475 297.536C39.5542 296.934 40.377 296.596 41.235 296.596V296.596Z" fill="white"/>
</mask>
<g mask="url(#mask2_80_39)">
<path d="M232.916 276.673H196.72C190.765 276.673 185.937 281.462 185.937 287.37V290.779C185.937 296.686 190.765 301.475 196.72 301.475H232.916C238.871 301.475 243.699 296.686 243.699 290.779V287.37C243.699 281.462 238.871 276.673 232.916 276.673Z" fill="#2F2F47"/>
</g>
<g filter="url(#filter1_d_80_39)">
<path d="M38 305.153H391.687C391.687 306.004 391.346 306.821 390.739 307.422C390.133 308.024 389.31 308.362 388.452 308.362H41.235C40.377 308.362 39.5542 308.024 38.9475 307.422C38.3408 306.821 38 306.004 38 305.153Z" fill="#393A56"/>
</g>
</g>
</g>
<defs>
<filter id="filter0_d_80_39" x="-1.99998" y="86.2007" width="433.687" height="282.162" filterUnits="userSpaceOnUse" color-interpolation-filters="sRGB">
<feFlood flood-opacity="0" result="BackgroundImageFix"/>
<feColorMatrix in="SourceAlpha" type="matrix" values="0 0 0 0 0 0 0 0 0 0 0 0 0 0 0 0 0 0 127 0" result="hardAlpha"/>
<feOffset dy="20"/>
<feGaussianBlur stdDeviation="20"/>
<feColorMatrix type="matrix" values="0 0 0 0 0.421822 0 0 0 0 0.554338 0 0 0 0 0.89371 0 0 0 0.243444 0"/>
<feBlend mode="normal" in2="BackgroundImageFix" result="effect1_dropShadow_80_39"/>
<feBlend mode="normal" in="SourceGraphic" in2="effect1_dropShadow_80_39" result="shape"/>
</filter>
<filter id="filter1_d_80_39" x="34" y="305.153" width="361.687" height="11.209" filterUnits="userSpaceOnUse" color-interpolation-filters="sRGB">
<feFlood flood-opacity="0" result="BackgroundImageFix"/>
<feColorMatrix in="SourceAlpha" type="matrix" values="0 0 0 0 0 0 0 0 0 0 0 0 0 0 0 0 0 0 127 0" result="hardAlpha"/>
<feOffset dy="4"/>
<feGaussianBlur stdDeviation="2"/>
<feComposite in2="hardAlpha" operator="out"/>
<feColorMatrix type="matrix" values="0 0 0 0 0 0 0 0 0 0 0 0 0 0 0 0 0 0 0.25 0"/>
<feBlend mode="normal" in2="BackgroundImageFix" result="effect1_dropShadow_80_39"/>
<feBlend mode="normal" in="SourceGraphic" in2="effect1_dropShadow_80_39" result="shape"/>
</filter>
<linearGradient id="paint0_linear_80_39" x1="89.1169" y1="122.346" x2="339.258" y2="122.346" gradientUnits="userSpaceOnUse">
<stop stop-color="#FE7A56"/>
<stop offset="1" stop-color="#F2485C"/>
</linearGradient>
<clipPath id="clip0_80_39">
<rect width="430" height="400" fill="white"/>
</clipPath>
</defs>
</svg>
