<svg width="1440" height="800" viewBox="0 0 1440 800" fill="none" xmlns="http://www.w3.org/2000/svg">
<g clip-path="url(#clip0_79_2)">
<rect width="1440" height="800" fill="white"/>
<path opacity="0.5" d="M455.401 401.018C455.401 587.923 304.091 739.44 117.439 739.44C-69.2118 739.44 -220.523 587.923 -220.523 401.018V398.982C-220.523 212.076 -69.2118 60.5595 117.439 60.5595C304.091 60.5595 455.401 212.076 455.401 398.982V401.018Z" stroke="#2D2E40"/>
<path opacity="0.25" d="M515.371 401.018C515.371 621.089 337.211 799.491 117.439 799.491C-102.332 799.491 -280.492 621.089 -280.492 401.018V398.982C-280.492 178.912 -102.332 0.509033 117.439 0.509033C337.211 0.509033 515.371 178.912 515.371 398.982V401.018Z" stroke="#2D2E40"/>
<path opacity="0.08" d="M396.957 401.018C396.957 555.601 271.813 680.916 117.439 680.916C-36.9338 680.916 -162.078 555.601 -162.078 401.018V398.982C-162.078 244.399 -36.9338 119.084 117.439 119.084C271.813 119.084 396.957 244.399 396.957 398.982V401.018Z" fill="#2D2E40"/>
<g filter="url(#filter0_d_79_2)">
<path d="M530.109 211.705H7.66533C0.929039 211.705 -4.5318 217.173 -4.5318 223.919V574.046C-4.5318 580.792 0.929039 586.26 7.66533 586.26H530.109C536.845 586.26 542.306 580.792 542.306 574.046V223.919C542.306 217.173 536.845 211.705 530.109 211.705Z" fill="#535353"/>
<path d="M529.092 214.758H8.68173C3.06815 214.758 -1.48254 219.315 -1.48254 224.936V573.028C-1.48254 578.649 3.06815 583.206 8.68173 583.206H529.092C534.706 583.206 539.257 578.649 539.257 573.028V224.936C539.257 219.315 534.706 214.758 529.092 214.758Z" fill="#1D1D25"/>
<path d="M524.01 227.99H15.7967C14.1126 227.99 12.7474 229.357 12.7474 231.043V566.791C12.7474 568.477 14.1126 569.844 15.7967 569.844H524.01C525.694 569.844 527.06 568.477 527.06 566.791V231.043C527.06 229.357 525.694 227.99 524.01 227.99Z" fill="url(#paint0_linear_79_2)"/>
<mask id="mask0_79_2" style="mask-type:luminance" maskUnits="userSpaceOnUse" x="12" y="227" width="516" height="343">
<path d="M524.01 227.99H15.7967C14.1126 227.99 12.7474 229.357 12.7474 231.043V566.791C12.7474 568.477 14.1126 569.844 15.7967 569.844H524.01C525.694 569.844 527.06 568.477 527.06 566.791V231.043C527.06 229.357 525.694 227.99 524.01 227.99Z" fill="white"/>
</mask>
<g mask="url(#mask0_79_2)">
<path d="M523.68 289.356H15.4664C13.7823 289.356 12.4171 290.724 12.4171 292.41V567.054C12.4171 568.741 13.7823 570.108 15.4664 570.108H523.68C525.364 570.108 526.729 568.741 526.729 567.054V292.41C526.729 290.724 525.364 289.356 523.68 289.356Z" fill="#F9F6F6"/>
</g>
<mask id="mask1_79_2" style="mask-type:luminance" maskUnits="userSpaceOnUse" x="12" y="227" width="516" height="343">
<path d="M524.01 227.99H15.7967C14.1126 227.99 12.7474 229.357 12.7474 231.043V566.791C12.7474 568.477 14.1126 569.844 15.7967 569.844H524.01C525.694 569.844 527.06 568.477 527.06 566.791V231.043C527.06 229.357 525.694 227.99 524.01 227.99Z" fill="white"/>
</mask>
<g mask="url(#mask1_79_2)">
<path d="M190.745 266.117H88.4458C86.7618 266.117 85.3965 267.484 85.3965 269.171V524.174C85.3965 525.861 86.7618 527.228 88.4458 527.228H190.745C192.429 527.228 193.794 525.861 193.794 524.174V269.171C193.794 267.484 192.429 266.117 190.745 266.117Z" fill="white"/>
<path d="M451.36 266.117H215.294C213.61 266.117 212.245 267.484 212.245 269.171V524.174C212.245 525.861 213.61 527.228 215.294 527.228H451.36C453.044 527.228 454.409 525.861 454.409 524.174V269.171C454.409 267.484 453.044 266.117 451.36 266.117Z" fill="white"/>
<path d="M440.982 279.982H225.673C223.989 279.982 222.623 281.349 222.623 283.035V338.162C222.623 339.848 223.989 341.216 225.673 341.216H440.982C442.666 341.216 444.032 339.848 444.032 338.162V283.035C444.032 281.349 442.666 279.982 440.982 279.982Z" fill="#E7E7E7"/>
<path d="M285.304 353.924H225.673C223.989 353.924 222.623 355.291 222.623 356.977V412.104C222.623 413.79 223.989 415.157 225.673 415.157H285.304C286.988 415.157 288.354 413.79 288.354 412.104V356.977C288.354 355.291 286.988 353.924 285.304 353.924Z" fill="#E7E7E7"/>
<path d="M440.982 353.924H307.548C305.864 353.924 304.499 355.291 304.499 356.977V412.104C304.499 413.79 305.864 415.157 307.548 415.157H440.982C442.666 415.157 444.032 413.79 444.032 412.104V356.977C444.032 355.291 442.666 353.924 440.982 353.924Z" fill="#E7E7E7"/>
</g>
<g opacity="0.098">
<path d="M279.153 195.42H268.379C267.537 195.42 266.854 196.103 266.854 196.947C266.854 197.79 267.537 198.473 268.379 198.473H279.153C279.995 198.473 280.678 197.79 280.678 196.947C280.678 196.103 279.995 195.42 279.153 195.42Z" fill="#4A5166"/>
<path d="M285.658 195.42H285.455C284.613 195.42 283.93 196.103 283.93 196.947C283.93 197.79 284.613 198.473 285.455 198.473H285.658C286.5 198.473 287.183 197.79 287.183 196.947C287.183 196.103 286.5 195.42 285.658 195.42Z" fill="#4A5166"/>
</g>
<path d="M-84.8296 582.188H619.453C620.262 582.188 621.037 582.51 621.609 583.083C622.181 583.655 622.502 584.432 622.502 585.242V599.598H-87.8788V585.242C-87.8788 584.432 -87.5576 583.655 -86.9857 583.083C-86.4139 582.51 -85.6383 582.188 -84.8296 582.188V582.188Z" fill="#52526F"/>
<mask id="mask2_79_2" style="mask-type:luminance" maskUnits="userSpaceOnUse" x="-88" y="582" width="711" height="18">
<path d="M-84.8296 582.188H619.453C620.262 582.188 621.037 582.51 621.609 583.083C622.181 583.655 622.502 584.432 622.502 585.242V599.598H-87.8788V585.242C-87.8788 584.432 -87.5576 583.655 -86.9857 583.083C-86.4139 582.51 -85.6383 582.188 -84.8296 582.188V582.188Z" fill="white"/>
</mask>
<g mask="url(#mask2_79_2)">
<path d="M315.162 539.534H219.459C213.846 539.534 209.295 544.091 209.295 549.712V582.456C209.295 588.078 213.846 592.634 219.459 592.634H315.162C320.776 592.634 325.326 588.078 325.326 582.456V549.712C325.326 544.091 320.776 539.534 315.162 539.534Z" fill="#2F2F47"/>
</g>
<path d="M-87.8788 599.491H622.604C622.604 601.111 621.961 602.664 620.817 603.809C619.674 604.955 618.123 605.598 616.505 605.598H-81.7803C-83.3977 605.598 -84.9489 604.955 -86.0926 603.809C-87.2363 602.664 -87.8788 601.111 -87.8788 599.491Z" fill="#393A56"/>
</g>
</g>
<defs>
<filter id="filter0_d_79_2" x="-127.879" y="175.42" width="790.483" height="490.178" filterUnits="userSpaceOnUse" color-interpolation-filters="sRGB">
<feFlood flood-opacity="0" result="BackgroundImageFix"/>
<feColorMatrix in="SourceAlpha" type="matrix" values="0 0 0 0 0 0 0 0 0 0 0 0 0 0 0 0 0 0 127 0" result="hardAlpha"/>
<feOffset dy="20"/>
<feGaussianBlur stdDeviation="20"/>
<feColorMatrix type="matrix" values="0 0 0 0 0.421822 0 0 0 0 0.554338 0 0 0 0 0.89371 0 0 0 0.243444 0"/>
<feBlend mode="normal" in2="BackgroundImageFix" result="effect1_dropShadow_79_2"/>
<feBlend mode="normal" in="SourceGraphic" in2="effect1_dropShadow_79_2" result="shape"/>
</filter>
<linearGradient id="paint0_linear_79_2" x1="269.903" y1="227.99" x2="615.25" y2="228.417" gradientUnits="userSpaceOnUse">
<stop stop-color="#FE7550"/>
<stop offset="1" stop-color="#FC5265"/>
</linearGradient>
<clipPath id="clip0_79_2">
<rect width="1440" height="800" fill="white"/>
</clipPath>
</defs>
</svg>
