<svg width="427" height="436" viewBox="0 0 427 436" fill="none" xmlns="http://www.w3.org/2000/svg">
<path d="M180.647 24.2234L62.9779 23.5261C54.0422 23.4731 46.7575 30.4166 46.7071 39.0348L45.1346 307.861C45.0842 316.479 52.2871 323.508 61.2228 323.561L178.892 324.258C187.827 324.311 195.112 317.368 195.162 308.75L196.735 39.924C196.785 31.3058 189.582 24.2764 180.647 24.2234Z" fill="url(#paint0_linear_31_43)"/>
<path d="M87.7957 181.541L87.9005 163.612L94.7516 163.653C96.0267 163.66 97.1273 163.856 98.0546 164.24C98.9819 164.625 99.6958 165.167 100.196 165.87C100.697 166.57 100.945 167.393 100.939 168.335C100.934 169.193 100.734 169.946 100.341 170.592C99.948 171.238 99.3741 171.764 98.6852 172.11C99.6391 172.469 100.38 173.033 100.907 173.802C101.433 174.571 101.693 175.478 101.687 176.522C101.681 177.565 101.393 178.463 100.822 179.218C100.251 179.972 99.4506 180.557 98.4215 180.972C97.3924 181.386 96.1785 181.589 94.7798 181.581L87.7957 181.541ZM91.7065 166.74L91.6824 170.856L94.285 170.872C95.1528 170.877 95.8215 170.709 96.2927 170.366C96.7639 170.023 97.0015 169.515 97.0054 168.842C97.0094 168.169 96.777 167.654 96.3107 167.298C95.8435 166.942 95.1761 166.761 94.3091 166.756L91.7057 166.741L91.7065 166.74ZM91.6379 178.457L94.6119 178.474C95.6032 178.48 96.3707 178.283 96.9128 177.882C97.455 177.481 97.7283 176.902 97.7327 176.144C97.7371 175.387 97.4707 174.804 96.9332 174.398C96.3951 173.99 95.6307 173.784 94.6394 173.778L91.6654 173.76L91.6379 178.457ZM104.021 181.637L104.131 162.799L107.849 162.821L107.739 181.659L104.021 181.637ZM117.456 182.094C116.412 182.088 115.448 181.906 114.564 181.547C113.702 181.202 112.92 180.695 112.263 180.056C111.607 179.414 111.092 178.651 110.749 177.812C110.391 176.952 110.215 176.016 110.221 175.006C110.227 173.996 110.418 173.068 110.795 172.219C111.161 171.386 111.693 170.63 112.361 169.994C113.033 169.356 113.83 168.854 114.707 168.518C115.603 168.17 116.582 167.999 117.644 168.005C118.689 168.011 119.653 168.194 120.536 168.553C121.398 168.898 122.18 169.405 122.838 170.044C123.492 170.683 124.006 171.441 124.351 172.275C124.71 173.127 124.885 174.058 124.879 175.068C124.873 176.078 124.683 177.011 124.305 177.867C123.941 178.706 123.409 179.466 122.739 180.106C122.067 180.744 121.27 181.246 120.393 181.581C119.497 181.93 118.518 182.101 117.456 182.094ZM117.528 178.913C118.2 178.917 118.803 178.752 119.337 178.419C119.87 178.086 120.292 177.629 120.606 177.05C120.919 176.471 121.078 175.812 121.082 175.071C121.087 174.33 120.935 173.668 120.629 173.086C120.322 172.504 119.905 172.042 119.376 171.702C118.846 171.362 118.246 171.19 117.573 171.186C116.9 171.182 116.297 171.347 115.764 171.681C115.231 172.014 114.808 172.471 114.494 173.049C114.182 173.629 114.022 174.288 114.018 175.029C114.014 175.77 114.165 176.431 114.471 177.014C114.778 177.597 115.195 178.058 115.725 178.397C116.254 178.737 116.855 178.909 117.528 178.913ZM133.048 181.429C132.192 181.43 131.346 181.253 130.568 180.91C129.81 180.575 129.13 180.094 128.572 179.496C128 178.881 127.553 178.167 127.256 177.392C126.942 176.591 126.788 175.727 126.793 174.802C126.799 173.842 126.968 172.955 127.3 172.141C127.616 171.351 128.089 170.629 128.693 170.015C129.284 169.417 129.991 168.936 130.773 168.601C131.562 168.261 132.418 168.093 133.339 168.098C134.242 168.103 135.055 168.281 135.778 168.63C136.501 168.979 137.12 169.499 137.576 170.143L137.665 168.502L141.09 168.523L141.022 180.264C141.016 181.291 140.838 182.224 140.488 183.064C140.155 183.878 139.649 184.615 139.001 185.227C138.349 185.836 137.573 186.309 136.723 186.615C135.844 186.938 134.874 187.097 133.812 187.09C132.768 187.084 131.83 186.922 131 186.606C130.196 186.306 129.46 185.86 128.83 185.293C128.218 184.74 127.726 184.076 127.381 183.34L130.944 182.528C131.247 183.006 131.669 183.404 132.172 183.685C132.675 183.965 133.245 184.107 133.882 184.111C134.573 184.115 135.171 183.971 135.677 183.68C136.186 183.386 136.598 182.959 136.866 182.449C137.152 181.921 137.298 181.303 137.302 180.596L137.309 179.51C136.824 180.115 136.198 180.601 135.481 180.926C134.744 181.267 133.933 181.434 133.048 181.429ZM133.969 178.303C134.624 178.307 135.206 178.155 135.711 177.847C136.221 177.535 136.639 177.103 136.927 176.592C137.232 176.063 137.385 175.462 137.389 174.789C137.393 174.115 137.247 173.512 136.948 172.981C136.666 172.466 136.253 172.029 135.747 171.711C135.245 171.396 134.666 171.237 134.011 171.233C133.356 171.229 132.775 171.381 132.269 171.691C131.759 172.002 131.341 172.434 131.053 172.946C130.749 173.474 130.595 174.075 130.591 174.748C130.587 175.422 130.734 176.024 131.032 176.557C131.33 177.088 131.73 177.511 132.233 177.826C132.736 178.141 133.314 178.299 133.969 178.303ZM143.987 181.874L144.065 168.54L147.491 168.56L147.611 170.581C147.97 169.876 148.451 169.336 149.055 168.961C149.659 168.586 150.369 168.4 151.183 168.405C151.43 168.407 151.678 168.429 151.926 168.473C152.173 168.517 152.394 168.573 152.589 168.641L152.17 172.123C151.977 172.055 151.777 172.007 151.574 171.981C151.367 171.954 151.158 171.94 150.949 171.939C149.923 171.933 149.133 172.227 148.581 172.821C148.028 173.416 147.749 174.26 147.743 175.354L147.705 181.894L143.987 181.872L143.987 181.874Z" fill="white"/>
<g filter="url(#filter0_d_31_43)">
<path d="M189.621 305.804C189.577 313.314 183.792 319.749 176.009 319.703L65.0192 319.045C57.2354 318.999 50.5059 312.489 50.5498 304.98L52.0926 41.2366C52.1365 33.7272 58.936 28.2773 66.7198 28.3234L79.5508 28.3995C82.2638 28.4156 83.2672 28.1222 83.4126 31.4406C83.4878 33.1647 84.1352 34.5077 85.1789 35.6226C86.2213 36.7169 87.6604 37.6191 89.3166 38.1304C90.4406 38.4776 91.6927 38.7929 92.8878 38.7999L151.539 39.1475C152.735 39.1546 153.99 38.7833 155.118 38.4502C156.782 37.9586 158.229 37.1301 159.285 36.0689C160.342 34.9863 161.004 33.7071 161.099 31.9847C161.282 28.6689 162.284 28.8898 164.997 28.9059L177.709 28.9812C185.492 29.0273 191.208 34.5514 191.164 42.0608L189.621 305.804ZM113.575 29.8907L130.958 29.9937C131.696 29.9981 132.293 30.4428 132.289 31.0762C132.286 31.7096 131.684 32.148 130.945 32.1436L113.562 32.0406C112.823 32.0362 112.228 31.5908 112.231 30.9573C112.235 30.3239 112.835 29.8863 113.575 29.8907ZM140.094 30.4181C140.091 30.9172 139.883 31.3946 139.515 31.7453C139.147 32.0961 138.649 32.2914 138.132 32.2883C137.615 32.2853 137.119 32.0841 136.756 31.729C136.392 31.3739 136.189 30.8941 136.192 30.395C136.195 29.8959 136.403 29.4185 136.771 29.0678C137.139 28.717 137.637 28.5217 138.154 28.5248C138.672 28.5278 139.167 28.729 139.53 29.0841C139.894 29.4392 140.097 29.919 140.094 30.4181ZM199.347 91.0393L199.628 42.9586C199.699 30.7983 189.539 20.8799 176.935 20.8052L66.0483 20.148C53.0482 20.071 42.3502 30.2715 42.2768 42.8155L42.1737 60.4339C41.8191 60.4318 41.4781 60.5656 41.2258 60.8059C40.9736 61.0463 40.8306 61.3734 40.8284 61.7155L40.7756 70.747C40.7736 71.0893 40.9126 71.4184 41.162 71.6619C41.4115 71.9055 41.7509 72.0436 42.1058 72.0459L42.0429 82.7968C41.688 82.7949 41.347 82.9289 41.0947 83.1695C40.8425 83.4101 40.6996 83.7375 40.6976 84.0798L40.5844 103.432C40.5828 103.774 40.722 104.103 40.9714 104.346C41.2208 104.59 41.56 104.728 41.9146 104.73L41.8769 111.181C41.5223 111.179 41.1814 111.313 40.9292 111.553C40.677 111.793 40.534 112.12 40.5316 112.462L40.4184 131.816C40.4164 132.158 40.5554 132.487 40.8048 132.731C41.0542 132.974 41.3937 133.112 41.7486 133.115L40.7378 305.912C40.6642 318.495 51.2743 328.855 64.3164 328.932L175.129 329.589C187.68 329.664 198.008 319.815 198.079 307.706L199.138 126.734L199.583 126.737C199.758 126.738 199.933 126.706 200.095 126.642C200.258 126.578 200.406 126.484 200.531 126.365C200.656 126.246 200.756 126.104 200.824 125.948C200.892 125.792 200.928 125.624 200.929 125.455L201.122 92.3408C201.127 91.628 200.531 91.0464 199.792 91.042L199.347 91.0393Z" fill="black"/>
</g>
<path d="M189.621 305.804C189.577 313.314 183.792 319.749 176.009 319.703L65.0192 319.045C57.2354 318.999 50.5059 312.489 50.5498 304.98L52.0926 41.2366C52.1365 33.7272 58.936 28.2773 66.7198 28.3234L79.5508 28.3995C82.2638 28.4156 83.2672 28.1222 83.4126 31.4406C83.4878 33.1647 84.1352 34.5077 85.1789 35.6226C86.2213 36.7169 87.6604 37.6191 89.3166 38.1304C90.4406 38.4776 91.6927 38.7929 92.8878 38.7999L151.539 39.1475C152.735 39.1546 153.99 38.7833 155.118 38.4502C156.782 37.9586 158.229 37.1301 159.285 36.0689C160.342 34.9863 161.004 33.7071 161.099 31.9847C161.282 28.6689 162.284 28.8898 164.997 28.9059L177.709 28.9812C185.492 29.0273 191.208 34.5514 191.164 42.0608L189.621 305.804ZM113.575 29.8907L130.958 29.9937C131.696 29.9981 132.293 30.4428 132.289 31.0762C132.286 31.7096 131.684 32.148 130.945 32.1436L113.562 32.0406C112.823 32.0362 112.228 31.5908 112.231 30.9573C112.235 30.3239 112.835 29.8863 113.575 29.8907ZM140.094 30.4181C140.091 30.9172 139.883 31.3946 139.515 31.7453C139.147 32.0961 138.649 32.2914 138.132 32.2883C137.615 32.2853 137.119 32.0841 136.756 31.729C136.392 31.3739 136.189 30.8941 136.192 30.395C136.195 29.8959 136.403 29.4185 136.771 29.0678C137.139 28.717 137.637 28.5217 138.154 28.5248C138.672 28.5278 139.167 28.729 139.53 29.0841C139.894 29.4392 140.097 29.919 140.094 30.4181ZM199.347 91.0393L199.628 42.9586C199.699 30.7983 189.539 20.8799 176.935 20.8052L66.0483 20.148C53.0482 20.071 42.3502 30.2715 42.2768 42.8155L42.1737 60.4339C41.8191 60.4318 41.4781 60.5656 41.2258 60.8059C40.9736 61.0463 40.8306 61.3734 40.8284 61.7155L40.7756 70.747C40.7736 71.0893 40.9126 71.4184 41.162 71.6619C41.4115 71.9055 41.7509 72.0436 42.1058 72.0459L42.0429 82.7968C41.688 82.7949 41.347 82.9289 41.0947 83.1695C40.8425 83.4101 40.6996 83.7375 40.6976 84.0798L40.5844 103.432C40.5828 103.774 40.722 104.103 40.9714 104.346C41.2208 104.59 41.56 104.728 41.9146 104.73L41.8769 111.181C41.5223 111.179 41.1814 111.313 40.9292 111.553C40.677 111.793 40.534 112.12 40.5316 112.462L40.4184 131.816C40.4164 132.158 40.5554 132.487 40.8048 132.731C41.0542 132.974 41.3937 133.112 41.7486 133.115L40.7378 305.912C40.6642 318.495 51.2743 328.855 64.3164 328.932L175.129 329.589C187.68 329.664 198.008 319.815 198.079 307.706L199.138 126.734L199.583 126.737C199.758 126.738 199.933 126.706 200.095 126.642C200.258 126.578 200.406 126.484 200.531 126.365C200.656 126.246 200.756 126.104 200.824 125.948C200.892 125.792 200.928 125.624 200.929 125.455L201.122 92.3408C201.127 91.628 200.531 91.0464 199.792 91.042L199.347 91.0393Z" fill="#1D1D25"/>
<path fill-rule="evenodd" clip-rule="evenodd" d="M130.961 29.991L113.578 29.888C112.839 29.8836 112.238 30.3226 112.234 30.9559C112.23 31.5884 112.826 32.0337 113.566 32.0381L130.948 32.1411C131.687 32.1455 132.289 31.7073 132.293 31.0747C132.297 30.4414 131.7 29.9954 130.961 29.991ZM138.157 28.5231C137.64 28.5203 137.143 28.7157 136.775 29.0665C136.407 29.4173 136.199 29.8947 136.196 30.3936C136.193 30.8926 136.396 31.3723 136.76 31.7271C137.124 32.082 137.619 32.283 138.137 32.2858C138.654 32.2887 139.152 32.0933 139.519 31.7425C139.887 31.3917 140.095 30.9143 140.098 30.4153C140.101 29.9164 139.898 29.4367 139.534 29.0818C139.17 28.727 138.675 28.526 138.157 28.5231Z" fill="black"/>
<path d="M366.44 70.0066L248.771 69.3093C239.835 69.2563 232.551 76.1998 232.5 84.818L230.928 353.644C230.877 362.262 238.08 369.291 247.016 369.344L364.685 370.042C373.62 370.095 380.905 363.151 380.955 354.533L382.528 85.7072C382.578 77.089 375.375 70.0596 366.44 70.0066Z" fill="url(#paint1_linear_31_43)"/>
<path d="M360.778 74.2286L253.894 73.5952C244.958 73.5422 237.674 80.4857 237.623 89.1039L236.087 351.774C236.036 360.392 243.239 367.421 252.175 367.474L359.059 368.108C367.995 368.161 375.279 361.217 375.33 352.599L376.866 89.9292C376.917 81.3109 369.714 74.2816 360.778 74.2286Z" fill="white"/>
<path d="M360.779 74.2285L253.899 73.5951C244.963 73.5422 237.679 80.4852 237.629 89.1027L237.507 109.862C237.457 118.479 244.659 125.508 253.595 125.561L360.475 126.194C369.41 126.247 376.694 119.304 376.745 110.687L376.866 89.9279C376.917 81.3103 369.714 74.2815 360.779 74.2285Z" fill="url(#paint2_linear_31_43)"/>
<g filter="url(#filter1_d_31_43)">
<path d="M365.482 107.05L248.811 106.357C247.186 106.348 245.861 107.61 245.852 109.177L245.643 144.95C245.634 146.517 246.944 147.795 248.568 147.805L365.239 148.497C366.864 148.507 368.188 147.245 368.198 145.678L368.407 109.905C368.416 108.338 367.106 107.06 365.482 107.05Z" fill="black"/>
</g>
<path d="M365.482 107.05L248.811 106.357C247.186 106.348 245.861 107.61 245.852 109.177L245.643 144.95C245.634 146.517 246.944 147.795 248.568 147.805L365.239 148.497C366.864 148.507 368.188 147.245 368.198 145.678L368.407 109.905C368.416 108.338 367.106 107.06 365.482 107.05Z" fill="white"/>
<g filter="url(#filter2_d_31_43)">
<path d="M365.18 158.403L248.509 157.71C246.884 157.7 245.56 158.962 245.551 160.529L245.342 196.303C245.333 197.869 246.642 199.147 248.267 199.157L364.938 199.85C366.562 199.86 367.887 198.597 367.896 197.031L368.105 161.257C368.114 159.69 366.805 158.412 365.18 158.403Z" fill="black"/>
</g>
<path d="M365.18 158.403L248.509 157.71C246.884 157.7 245.56 158.962 245.551 160.529L245.342 196.303C245.333 197.869 246.642 199.147 248.267 199.157L364.938 199.85C366.562 199.86 367.887 198.597 367.896 197.031L368.105 161.257C368.114 159.69 366.805 158.412 365.18 158.403Z" fill="white"/>
<g filter="url(#filter3_d_31_43)">
<path d="M364.879 209.755L248.207 209.062C246.583 209.052 245.258 210.315 245.249 211.882L245.04 247.655C245.031 249.222 246.341 250.5 247.965 250.509L364.636 251.202C366.261 251.212 367.585 249.95 367.595 248.383L367.804 212.609C367.813 211.043 366.503 209.765 364.879 209.755Z" fill="black"/>
</g>
<path d="M364.879 209.755L248.207 209.062C246.583 209.052 245.258 210.315 245.249 211.882L245.04 247.655C245.031 249.222 246.341 250.5 247.965 250.509L364.636 251.202C366.261 251.212 367.585 249.95 367.595 248.383L367.804 212.609C367.813 211.043 366.503 209.765 364.879 209.755Z" fill="white"/>
<g filter="url(#filter4_d_31_43)">
<path d="M364.577 261.108L247.906 260.415C246.281 260.406 244.957 261.668 244.948 263.235L244.739 299.008C244.73 300.575 246.039 301.853 247.664 301.862L364.335 302.555C365.959 302.565 367.284 301.303 367.293 299.736L367.502 263.962C367.511 262.396 366.202 261.118 364.577 261.108Z" fill="black"/>
</g>
<path d="M364.577 261.108L247.906 260.415C246.281 260.406 244.957 261.668 244.948 263.235L244.739 299.008C244.73 300.575 246.039 301.853 247.664 301.862L364.335 302.555C365.959 302.565 367.284 301.303 367.293 299.736L367.502 263.962C367.511 262.396 366.202 261.118 364.577 261.108Z" fill="white"/>
<g filter="url(#filter5_d_31_43)">
<path d="M364.276 312.46L247.604 311.767C245.98 311.758 244.655 313.02 244.646 314.587L244.437 350.36C244.428 351.927 245.738 353.205 247.362 353.215L364.033 353.908C365.658 353.917 366.982 352.655 366.992 351.088L367.201 315.315C367.21 313.748 365.9 312.47 364.276 312.46Z" fill="black"/>
</g>
<path d="M364.276 312.46L247.604 311.767C245.98 311.758 244.655 313.02 244.646 314.587L244.437 350.36C244.428 351.927 245.738 353.205 247.362 353.215L364.033 353.908C365.658 353.917 366.982 352.655 366.992 351.088L367.201 315.315C367.21 313.748 365.9 312.47 364.276 312.46Z" fill="white"/>
<path d="M273.589 227.323L273.694 209.395L280.545 209.436C281.82 209.443 282.92 209.639 283.848 210.023C284.775 210.408 285.489 210.95 285.989 211.653C286.49 212.353 286.738 213.176 286.732 214.118C286.727 214.976 286.527 215.729 286.135 216.375C285.741 217.021 285.167 217.547 284.478 217.893C285.432 218.252 286.173 218.816 286.7 219.585C287.226 220.354 287.486 221.261 287.48 222.305C287.474 223.348 287.186 224.246 286.615 225.001C286.044 225.755 285.244 226.34 284.215 226.754C283.186 227.169 281.972 227.372 280.573 227.364L273.589 227.323ZM277.5 212.523L277.476 216.639L280.078 216.655C280.946 216.66 281.615 216.491 282.086 216.149C282.557 215.806 282.795 215.298 282.799 214.625C282.802 213.952 282.57 213.437 282.104 213.081C281.637 212.725 280.969 212.544 280.102 212.539L277.499 212.524L277.5 212.523ZM277.431 224.24L280.405 224.257C281.396 224.263 282.164 224.066 282.706 223.665C283.248 223.264 283.521 222.685 283.526 221.927C283.53 221.17 283.264 220.587 282.726 220.181C282.188 219.773 281.424 219.566 280.432 219.561L277.459 219.543L277.431 224.24ZM289.814 227.42L289.924 208.582L293.642 208.604L293.532 227.442L289.814 227.42ZM303.249 227.877C302.205 227.871 301.241 227.689 300.358 227.33C299.496 226.985 298.713 226.478 298.056 225.839C297.4 225.197 296.885 224.434 296.542 223.595C296.184 222.735 296.008 221.799 296.014 220.789C296.02 219.779 296.211 218.851 296.588 218.002C296.954 217.169 297.487 216.413 298.154 215.777C298.826 215.139 299.624 214.637 300.5 214.301C301.396 213.953 302.375 213.782 303.437 213.788C304.482 213.794 305.446 213.977 306.329 214.336C307.191 214.681 307.973 215.188 308.631 215.827C309.285 216.466 309.799 217.224 310.145 218.058C310.503 218.91 310.678 219.841 310.672 220.851C310.666 221.861 310.476 222.794 310.099 223.65C309.734 224.489 309.202 225.249 308.532 225.889C307.861 226.527 307.063 227.029 306.186 227.364C305.29 227.713 304.311 227.884 303.249 227.877ZM303.321 224.696C303.994 224.7 304.596 224.535 305.13 224.202C305.663 223.869 306.085 223.412 306.399 222.833C306.712 222.254 306.871 221.595 306.875 220.854C306.88 220.113 306.728 219.451 306.422 218.868C306.115 218.286 305.698 217.825 305.169 217.485C304.639 217.145 304.039 216.973 303.366 216.969C302.693 216.965 302.09 217.13 301.557 217.464C301.024 217.797 300.601 218.254 300.287 218.832C299.975 219.412 299.815 220.071 299.811 220.812C299.807 221.553 299.958 222.214 300.264 222.797C300.571 223.38 300.988 223.841 301.518 224.18C302.047 224.52 302.648 224.692 303.321 224.696ZM318.841 227.212C317.985 227.213 317.14 227.036 316.361 226.692C315.603 226.358 314.923 225.877 314.365 225.279C313.793 224.664 313.346 223.95 313.049 223.175C312.735 222.374 312.581 221.51 312.586 220.585C312.592 219.625 312.761 218.738 313.093 217.924C313.409 217.134 313.882 216.412 314.486 215.798C315.077 215.2 315.784 214.719 316.566 214.384C317.355 214.044 318.211 213.876 319.132 213.881C320.035 213.886 320.848 214.064 321.572 214.413C322.295 214.762 322.913 215.282 323.369 215.926L323.458 214.285L326.884 214.306L326.815 226.047C326.809 227.074 326.631 228.007 326.281 228.847C325.948 229.661 325.442 230.398 324.794 231.01C324.142 231.619 323.366 232.092 322.516 232.398C321.637 232.721 320.667 232.879 319.605 232.873C318.561 232.867 317.623 232.705 316.793 232.389C315.989 232.089 315.253 231.643 314.623 231.076C314.011 230.523 313.519 229.859 313.174 229.123L316.737 228.311C317.04 228.789 317.462 229.187 317.965 229.467C318.468 229.748 319.038 229.89 319.676 229.894C320.366 229.898 320.964 229.754 321.47 229.463C321.979 229.169 322.391 228.742 322.659 228.232C322.946 227.704 323.091 227.086 323.095 226.379L323.102 225.293C322.618 225.898 321.991 226.384 321.274 226.709C320.537 227.05 319.727 227.217 318.841 227.212ZM319.763 224.086C320.417 224.09 320.999 223.937 321.504 223.63C322.014 223.318 322.432 222.886 322.72 222.375C323.025 221.846 323.178 221.245 323.182 220.571C323.186 219.898 323.04 219.295 322.741 218.764C322.46 218.249 322.046 217.812 321.54 217.494C321.038 217.179 320.459 217.02 319.804 217.016C319.149 217.012 318.568 217.164 318.062 217.474C317.552 217.785 317.134 218.217 316.846 218.729C316.542 219.257 316.388 219.858 316.384 220.531C316.38 221.205 316.527 221.807 316.825 222.34C317.124 222.871 317.523 223.294 318.026 223.609C318.529 223.924 319.107 224.082 319.763 224.086ZM329.78 227.656L329.858 214.323L333.284 214.343L333.404 216.364C333.763 215.659 334.244 215.119 334.848 214.744C335.452 214.369 336.162 214.183 336.976 214.188C337.224 214.19 337.471 214.212 337.719 214.256C337.966 214.3 338.188 214.356 338.382 214.423L337.963 217.906C337.77 217.838 337.57 217.79 337.367 217.764C337.16 217.737 336.951 217.723 336.743 217.722C335.716 217.716 334.927 218.01 334.374 218.604C333.822 219.199 333.542 220.043 333.536 221.137L333.498 227.677L329.78 227.655L329.78 227.656Z" fill="white"/>
<g filter="url(#filter6_d_31_43)">
<path d="M375.415 351.587C375.372 359.096 369.586 365.532 361.803 365.486L250.813 364.826C243.029 364.78 236.299 358.27 236.343 350.761L237.884 87.0195C237.928 79.5102 244.728 74.0605 252.512 74.1067L265.343 74.1829C268.056 74.199 269.059 73.9057 269.205 77.224C269.28 78.9481 269.927 80.2912 270.971 81.406C272.013 82.5003 273.453 83.4026 275.109 83.9139C276.233 84.2611 277.485 84.5764 278.68 84.5835L337.332 84.9319C338.528 84.939 339.783 84.5676 340.911 84.2346C342.574 83.743 344.022 82.9146 345.078 81.8533C346.135 80.7708 346.797 79.4916 346.892 77.7692C347.075 74.4535 348.077 74.6743 350.79 74.6905L363.502 74.766C371.285 74.8122 377.001 80.3363 376.957 87.8456L375.415 351.587ZM299.367 75.6746L316.75 75.7778C317.489 75.7822 318.086 76.2269 318.082 76.8603C318.078 77.4937 317.476 77.9321 316.738 77.9277L299.354 77.8244C298.615 77.82 298.02 77.3746 298.024 76.7412C298.027 76.1078 298.628 75.6702 299.367 75.6746ZM325.887 76.2024C325.884 76.7014 325.676 77.1788 325.308 77.5296C324.94 77.8803 324.442 78.0756 323.925 78.0725C323.407 78.0695 322.912 77.8682 322.548 77.5132C322.184 77.1581 321.982 76.6782 321.985 76.1792C321.987 75.6801 322.196 75.2027 322.564 74.852C322.932 74.5012 323.429 74.3059 323.947 74.309C324.464 74.3121 324.959 74.5133 325.323 74.8683C325.687 75.2234 325.89 75.7033 325.887 76.2024ZM385.14 136.824L385.421 88.7436C385.492 76.5834 375.332 66.6649 362.728 66.59L251.84 65.9313C238.84 65.8541 228.142 76.0544 228.069 88.5984L227.966 106.217C227.611 106.214 227.27 106.348 227.018 106.589C226.765 106.829 226.622 107.156 226.62 107.498L226.567 116.53C226.565 116.872 226.704 117.201 226.954 117.445C227.203 117.688 227.543 117.826 227.898 117.828L227.835 128.579C227.48 128.577 227.139 128.711 226.887 128.952C226.634 129.193 226.492 129.52 226.49 129.862L226.376 149.215C226.375 149.557 226.514 149.885 226.763 150.129C227.013 150.372 227.352 150.51 227.707 150.512L227.669 156.963C227.314 156.961 226.974 157.095 226.721 157.335C226.469 157.576 226.326 157.903 226.324 158.245L226.211 177.598C226.209 177.94 226.348 178.269 226.597 178.513C226.846 178.756 227.186 178.895 227.541 178.897L226.531 351.693C226.457 364.276 237.068 374.636 250.11 374.714L360.923 375.372C373.475 375.446 383.803 365.598 383.874 353.489L384.932 172.519L385.377 172.521C385.552 172.522 385.726 172.49 385.889 172.426C386.052 172.362 386.2 172.268 386.325 172.149C386.45 172.03 386.55 171.888 386.618 171.732C386.686 171.576 386.722 171.408 386.723 171.239L386.916 138.125C386.92 137.413 386.325 136.831 385.585 136.827L385.14 136.824Z" fill="black"/>
</g>
<path d="M375.415 351.587C375.372 359.096 369.586 365.532 361.803 365.486L250.813 364.826C243.029 364.78 236.299 358.27 236.343 350.761L237.884 87.0195C237.928 79.5102 244.728 74.0605 252.512 74.1067L265.343 74.1829C268.056 74.199 269.059 73.9057 269.205 77.224C269.28 78.9481 269.927 80.2912 270.971 81.406C272.013 82.5003 273.453 83.4026 275.109 83.9139C276.233 84.2611 277.485 84.5764 278.68 84.5835L337.332 84.9319C338.528 84.939 339.783 84.5676 340.911 84.2346C342.574 83.743 344.022 82.9146 345.078 81.8533C346.135 80.7708 346.797 79.4916 346.892 77.7692C347.075 74.4535 348.077 74.6743 350.79 74.6905L363.502 74.766C371.285 74.8122 377.001 80.3363 376.957 87.8456L375.415 351.587ZM299.367 75.6746L316.75 75.7778C317.489 75.7822 318.086 76.2269 318.082 76.8603C318.078 77.4937 317.476 77.9321 316.738 77.9277L299.354 77.8244C298.615 77.82 298.02 77.3746 298.024 76.7412C298.027 76.1078 298.628 75.6702 299.367 75.6746ZM325.887 76.2024C325.884 76.7014 325.676 77.1788 325.308 77.5296C324.94 77.8803 324.442 78.0756 323.925 78.0725C323.407 78.0695 322.912 77.8682 322.548 77.5132C322.184 77.1581 321.982 76.6782 321.985 76.1792C321.987 75.6801 322.196 75.2027 322.564 74.852C322.932 74.5012 323.429 74.3059 323.947 74.309C324.464 74.3121 324.959 74.5133 325.323 74.8683C325.687 75.2234 325.89 75.7033 325.887 76.2024ZM385.14 136.824L385.421 88.7436C385.492 76.5834 375.332 66.6649 362.728 66.59L251.84 65.9313C238.84 65.8541 228.142 76.0544 228.069 88.5984L227.966 106.217C227.611 106.214 227.27 106.348 227.018 106.589C226.765 106.829 226.622 107.156 226.62 107.498L226.567 116.53C226.565 116.872 226.704 117.201 226.954 117.445C227.203 117.688 227.543 117.826 227.898 117.828L227.835 128.579C227.48 128.577 227.139 128.711 226.887 128.952C226.634 129.193 226.492 129.52 226.49 129.862L226.376 149.215C226.375 149.557 226.514 149.885 226.763 150.129C227.013 150.372 227.352 150.51 227.707 150.512L227.669 156.963C227.314 156.961 226.974 157.095 226.721 157.335C226.469 157.576 226.326 157.903 226.324 158.245L226.211 177.598C226.209 177.94 226.348 178.269 226.597 178.513C226.846 178.756 227.186 178.895 227.541 178.897L226.531 351.693C226.457 364.276 237.068 374.636 250.11 374.714L360.923 375.372C373.475 375.446 383.803 365.598 383.874 353.489L384.932 172.519L385.377 172.521C385.552 172.522 385.726 172.49 385.889 172.426C386.052 172.362 386.2 172.268 386.325 172.149C386.45 172.03 386.55 171.888 386.618 171.732C386.686 171.576 386.722 171.408 386.723 171.239L386.916 138.125C386.92 137.413 386.325 136.831 385.585 136.827L385.14 136.824Z" fill="#1D1D25"/>
<path fill-rule="evenodd" clip-rule="evenodd" d="M316.754 75.7738L299.371 75.6706C298.632 75.6662 298.031 76.1051 298.027 76.7383C298.023 77.3708 298.62 77.8161 299.359 77.8205L316.741 77.9237C317.48 77.9281 318.082 77.4899 318.086 76.8574C318.09 76.2242 317.493 75.7782 316.754 75.7738ZM323.95 74.3062C323.433 74.3033 322.936 74.4987 322.568 74.8495C322.2 75.2002 321.992 75.6776 321.989 76.1765C321.986 76.6754 322.189 77.155 322.553 77.5098C322.917 77.8647 323.412 78.0656 323.93 78.0685C324.447 78.0714 324.945 77.876 325.313 77.5252C325.68 77.1745 325.888 76.6971 325.891 76.1982C325.894 75.6993 325.691 75.2197 325.327 74.8649C324.963 74.51 324.468 74.3091 323.95 74.3062Z" fill="black"/>
<defs>
<filter id="filter0_d_31_43" x="0.418365" y="0.147705" width="240.704" height="389.442" filterUnits="userSpaceOnUse" color-interpolation-filters="sRGB">
<feFlood flood-opacity="0" result="BackgroundImageFix"/>
<feColorMatrix in="SourceAlpha" type="matrix" values="0 0 0 0 0 0 0 0 0 0 0 0 0 0 0 0 0 0 127 0" result="hardAlpha"/>
<feOffset dy="20"/>
<feGaussianBlur stdDeviation="20"/>
<feColorMatrix type="matrix" values="0 0 0 0 0.421822 0 0 0 0 0.554338 0 0 0 0 0.89371 0 0 0 0.243444 0"/>
<feBlend mode="normal" in2="BackgroundImageFix" result="effect1_dropShadow_31_43"/>
<feBlend mode="normal" in="SourceGraphic" in2="effect1_dropShadow_31_43" result="shape"/>
</filter>
<filter id="filter1_d_31_43" x="225.643" y="96.3572" width="162.764" height="82.1404" filterUnits="userSpaceOnUse" color-interpolation-filters="sRGB">
<feFlood flood-opacity="0" result="BackgroundImageFix"/>
<feColorMatrix in="SourceAlpha" type="matrix" values="0 0 0 0 0 0 0 0 0 0 0 0 0 0 0 0 0 0 127 0" result="hardAlpha"/>
<feOffset dy="10"/>
<feGaussianBlur stdDeviation="10"/>
<feColorMatrix type="matrix" values="0 0 0 0 0.421822 0 0 0 0 0.554338 0 0 0 0 0.89371 0 0 0 0.243444 0"/>
<feBlend mode="normal" in2="BackgroundImageFix" result="effect1_dropShadow_31_43"/>
<feBlend mode="normal" in="SourceGraphic" in2="effect1_dropShadow_31_43" result="shape"/>
</filter>
<filter id="filter2_d_31_43" x="225.342" y="147.71" width="162.764" height="82.1404" filterUnits="userSpaceOnUse" color-interpolation-filters="sRGB">
<feFlood flood-opacity="0" result="BackgroundImageFix"/>
<feColorMatrix in="SourceAlpha" type="matrix" values="0 0 0 0 0 0 0 0 0 0 0 0 0 0 0 0 0 0 127 0" result="hardAlpha"/>
<feOffset dy="10"/>
<feGaussianBlur stdDeviation="10"/>
<feColorMatrix type="matrix" values="0 0 0 0 0.421822 0 0 0 0 0.554338 0 0 0 0 0.89371 0 0 0 0.243444 0"/>
<feBlend mode="normal" in2="BackgroundImageFix" result="effect1_dropShadow_31_43"/>
<feBlend mode="normal" in="SourceGraphic" in2="effect1_dropShadow_31_43" result="shape"/>
</filter>
<filter id="filter3_d_31_43" x="225.04" y="199.062" width="162.764" height="82.1404" filterUnits="userSpaceOnUse" color-interpolation-filters="sRGB">
<feFlood flood-opacity="0" result="BackgroundImageFix"/>
<feColorMatrix in="SourceAlpha" type="matrix" values="0 0 0 0 0 0 0 0 0 0 0 0 0 0 0 0 0 0 127 0" result="hardAlpha"/>
<feOffset dy="10"/>
<feGaussianBlur stdDeviation="10"/>
<feColorMatrix type="matrix" values="0 0 0 0 0.421822 0 0 0 0 0.554338 0 0 0 0 0.89371 0 0 0 0.243444 0"/>
<feBlend mode="normal" in2="BackgroundImageFix" result="effect1_dropShadow_31_43"/>
<feBlend mode="normal" in="SourceGraphic" in2="effect1_dropShadow_31_43" result="shape"/>
</filter>
<filter id="filter4_d_31_43" x="224.739" y="250.415" width="162.764" height="82.1404" filterUnits="userSpaceOnUse" color-interpolation-filters="sRGB">
<feFlood flood-opacity="0" result="BackgroundImageFix"/>
<feColorMatrix in="SourceAlpha" type="matrix" values="0 0 0 0 0 0 0 0 0 0 0 0 0 0 0 0 0 0 127 0" result="hardAlpha"/>
<feOffset dy="10"/>
<feGaussianBlur stdDeviation="10"/>
<feColorMatrix type="matrix" values="0 0 0 0 0.421822 0 0 0 0 0.554338 0 0 0 0 0.89371 0 0 0 0.243444 0"/>
<feBlend mode="normal" in2="BackgroundImageFix" result="effect1_dropShadow_31_43"/>
<feBlend mode="normal" in="SourceGraphic" in2="effect1_dropShadow_31_43" result="shape"/>
</filter>
<filter id="filter5_d_31_43" x="224.437" y="301.767" width="162.764" height="82.1404" filterUnits="userSpaceOnUse" color-interpolation-filters="sRGB">
<feFlood flood-opacity="0" result="BackgroundImageFix"/>
<feColorMatrix in="SourceAlpha" type="matrix" values="0 0 0 0 0 0 0 0 0 0 0 0 0 0 0 0 0 0 127 0" result="hardAlpha"/>
<feOffset dy="10"/>
<feGaussianBlur stdDeviation="10"/>
<feColorMatrix type="matrix" values="0 0 0 0 0.421822 0 0 0 0 0.554338 0 0 0 0 0.89371 0 0 0 0.243444 0"/>
<feBlend mode="normal" in2="BackgroundImageFix" result="effect1_dropShadow_31_43"/>
<feBlend mode="normal" in="SourceGraphic" in2="effect1_dropShadow_31_43" result="shape"/>
</filter>
<filter id="filter6_d_31_43" x="186.211" y="45.9309" width="240.706" height="389.441" filterUnits="userSpaceOnUse" color-interpolation-filters="sRGB">
<feFlood flood-opacity="0" result="BackgroundImageFix"/>
<feColorMatrix in="SourceAlpha" type="matrix" values="0 0 0 0 0 0 0 0 0 0 0 0 0 0 0 0 0 0 127 0" result="hardAlpha"/>
<feOffset dy="20"/>
<feGaussianBlur stdDeviation="20"/>
<feColorMatrix type="matrix" values="0 0 0 0 0.421822 0 0 0 0 0.554338 0 0 0 0 0.89371 0 0 0 0.243444 0"/>
<feBlend mode="normal" in2="BackgroundImageFix" result="effect1_dropShadow_31_43"/>
<feBlend mode="normal" in="SourceGraphic" in2="effect1_dropShadow_31_43" result="shape"/>
</filter>
<linearGradient id="paint0_linear_31_43" x1="121.812" y1="23.8747" x2="120.034" y2="323.91" gradientUnits="userSpaceOnUse">
<stop stop-color="#FE7550"/>
<stop offset="1" stop-color="#FF4F64"/>
</linearGradient>
<linearGradient id="paint1_linear_31_43" x1="5989.31" y1="103.33" x2="17929.8" y2="26176.9" gradientUnits="userSpaceOnUse">
<stop stop-color="#FF8F71"/>
<stop offset="1" stop-color="#FF3E55"/>
</linearGradient>
<linearGradient id="paint2_linear_31_43" x1="224.797" y1="2282.68" x2="12458" y2="7274.9" gradientUnits="userSpaceOnUse">
<stop stop-color="#FF8F71"/>
<stop offset="1" stop-color="#FF3E55"/>
</linearGradient>
</defs>
</svg>
